<svg xmlns="http://www.w3.org/2000/svg" xmlns:xlink="http://www.w3.org/1999/xlink" contentStyleType="text/css" data-diagram-type="DESCRIPTION" height="690px" preserveAspectRatio="none" style="width:1169px;height:690px;background:#FFFFFF;" version="1.1" viewBox="0 0 1169 690" width="1169px" zoomAndPan="magnify"><?plantuml 1.2026.6?><defs/><g><g class="title" data-source-line="1"><text fill="#000000" font-family="sans-serif" font-size="14" font-weight="700" lengthAdjust="spacing" textLength="324.0713" x="419.4313" y="23.5352">Vitarerum bounded context map - simplified</text></g><!--cluster backend--><g class="cluster" data-qualified-name="backend" data-source-line="29" id="ent0005"><rect fill="#FFFFFF" height="331.91" rx="2.5" ry="2.5" style="stroke:#64748B;stroke-width:1;" width="626" x="7" y="344.4483"/><text fill="#000000" font-family="sans-serif" font-size="14" font-weight="700" lengthAdjust="spacing" textLength="114.8574" x="262.5713" y="359.9834">Python backend</text><text fill="#000000" font-family="sans-serif" font-size="14" font-weight="700" lengthAdjust="spacing" textLength="129.377" x="255.3115" y="376.4717">modular monolith</text></g><!--entity core--><g class="entity" data-qualified-name="backend.core" data-source-line="30" id="ent0006"><rect fill="#E0F2FE" height="85.9531" rx="2.5" ry="2.5" style="stroke:#334155;stroke-width:0.5;" width="142.6982" x="30.65" y="411.6983"/><text fill="#000000" font-family="sans-serif" font-size="14" lengthAdjust="spacing" textLength="98.123" x="52.9376" y="435.2334">Core workflow</text><text fill="#000000" font-family="sans-serif" font-size="14" lengthAdjust="spacing" textLength="51.167" x="76.4156" y="451.7217">Identity</text><text fill="#000000" font-family="sans-serif" font-size="14" lengthAdjust="spacing" textLength="122.3018" x="40.8482" y="468.21">Use of Collections</text><text fill="#000000" font-family="sans-serif" font-size="14" lengthAdjust="spacing" textLength="122.6982" x="40.65" y="484.6983">Public Submission</text></g><!--entity knowledge--><g class="entity" data-qualified-name="backend.knowledge" data-source-line="31" id="ent0007"><rect fill="#ECFDF5" height="85.9531" rx="2.5" ry="2.5" style="stroke:#334155;stroke-width:0.5;" width="178.8535" x="208.57" y="411.6983"/><text fill="#000000" font-family="sans-serif" font-size="14" lengthAdjust="spacing" textLength="145.7969" x="225.0983" y="435.2334">Collection knowledge</text><text fill="#000000" font-family="sans-serif" font-size="14" lengthAdjust="spacing" textLength="158.8535" x="218.57" y="451.7217">Collection Object Index</text><text fill="#000000" font-family="sans-serif" font-size="14" lengthAdjust="spacing" textLength="144.6553" x="225.6691" y="468.21">Document Templates</text><text fill="#000000" font-family="sans-serif" font-size="14" lengthAdjust="spacing" textLength="130.0811" x="232.9562" y="484.6983">Museum Questions</text></g><!--entity reporting--><g class="entity" data-qualified-name="backend.reporting" data-source-line="32" id="ent0008"><rect fill="#FFF7ED" height="102.4414" rx="2.5" ry="2.5" style="stroke:#334155;stroke-width:0.5;" width="166.7744" x="422.61" y="403.4483"/><text fill="#000000" font-family="sans-serif" font-size="14" lengthAdjust="spacing" textLength="113.7295" x="449.1325" y="426.9834">In-situ reporting</text><text fill="#000000" font-family="sans-serif" font-size="14" lengthAdjust="spacing" textLength="146.7744" x="432.61" y="443.4717">CIDOC-CRM Mapping</text><text fill="#000000" font-family="sans-serif" font-size="14" lengthAdjust="spacing" textLength="123.4639" x="444.2653" y="459.96">Museum Narrative</text><text fill="#000000" font-family="sans-serif" font-size="14" lengthAdjust="spacing" textLength="52.165" x="479.9147" y="476.4483">Reports</text><text fill="#000000" font-family="sans-serif" font-size="14" lengthAdjust="spacing" textLength="141.7773" x="435.1085" y="492.9366">External Publications</text></g><!--entity ai_support--><g class="entity" data-qualified-name="backend.ai_support" data-source-line="33" id="ent0009"><rect fill="#F5F3FF" height="52.9766" rx="2.5" ry="2.5" style="stroke:#334155;stroke-width:0.5;" width="94.4434" x="54.78" y="591.1383"/><text fill="#000000" font-family="sans-serif" font-size="14" lengthAdjust="spacing" textLength="71.1348" x="66.4343" y="614.6734">AI support</text><text fill="#000000" font-family="sans-serif" font-size="14" lengthAdjust="spacing" textLength="74.4434" x="64.78" y="631.1617">AI Prompts</text></g><!--entity operations--><g class="entity" data-qualified-name="backend.operations" data-source-line="34" id="ent0010"><rect fill="#F1F5F9" height="69.4648" rx="2.5" ry="2.5" style="stroke:#334155;stroke-width:0.5;" width="156.7393" x="184.63" y="582.8983"/><text fill="#000000" font-family="sans-serif" font-size="14" lengthAdjust="spacing" textLength="136.7393" x="194.63" y="606.4334">Operational support</text><text fill="#000000" font-family="sans-serif" font-size="14" lengthAdjust="spacing" textLength="132.7949" x="196.6022" y="622.9217">Reference Numbers</text><text fill="#000000" font-family="sans-serif" font-size="14" lengthAdjust="spacing" textLength="86.0303" x="219.9845" y="639.41">Notifications</text></g><!--entity public_visitor--><g class="entity" data-qualified-name="public_visitor" data-source-line="22" id="ent0001"><ellipse cx="640.9968" cy="59.7283" fill="#F8FAFC" rx="8" ry="8" style="stroke:#334155;stroke-width:0.5;"/><path d="M640.9968,67.7283 L640.9968,94.7283 M627.9968,75.7283 L653.9968,75.7283 M640.9968,94.7283 L627.9968,109.7283 M640.9968,94.7283 L653.9968,109.7283" fill="none" style="stroke:#334155;stroke-width:0.5;"/><text fill="#000000" font-family="sans-serif" font-size="14" lengthAdjust="spacing" textLength="86.9736" x="597.51" y="124.7634">Public visitor</text></g><!--entity staff_user--><g class="entity" data-qualified-name="staff_user" data-source-line="23" id="ent0002"><ellipse cx="783.9986" cy="51.4883" fill="#F8FAFC" rx="8" ry="8" style="stroke:#334155;stroke-width:0.5;"/><path d="M783.9986,59.4883 L783.9986,86.4883 M770.9986,67.4883 L796.9986,67.4883 M783.9986,86.4883 L770.9986,101.4883 M783.9986,86.4883 L796.9986,101.4883" fill="none" style="stroke:#334155;stroke-width:0.5;"/><text fill="#000000" font-family="sans-serif" font-size="14" lengthAdjust="spacing" textLength="128.5771" x="719.71" y="116.5234">Authenticated user</text><text fill="#000000" font-family="sans-serif" font-size="14" lengthAdjust="spacing" textLength="42.1709" x="762.9131" y="133.0117">/ staff</text></g><!--entity external_consumer--><g class="entity" data-qualified-name="external_consumer" data-source-line="24" id="ent0003"><ellipse cx="536.9989" cy="205.4683" fill="#F8FAFC" rx="8" ry="8" style="stroke:#334155;stroke-width:0.5;"/><path d="M536.9989,213.4683 L536.9989,240.4683 M523.9989,221.4683 L549.9989,221.4683 M536.9989,240.4683 L523.9989,255.4683 M536.9989,240.4683 L549.9989,255.4683" fill="none" style="stroke:#334155;stroke-width:0.5;"/><text fill="#000000" font-family="sans-serif" font-size="14" lengthAdjust="spacing" textLength="126.7178" x="473.64" y="270.5034">External consumer</text></g><!--entity spa--><g class="entity" data-qualified-name="spa" data-source-line="27" id="ent0004"><rect fill="#F8FAFC" height="36.4883" rx="2.5" ry="2.5" style="stroke:#334155;stroke-width:0.5;" width="102.6396" x="661.68" y="216.9683"/><text fill="#000000" font-family="sans-serif" font-size="14" lengthAdjust="spacing" textLength="82.6396" x="671.68" y="240.5034">Angular SPA</text></g><!--entity db--><g class="entity" data-qualified-name="db" data-source-line="37" id="ent0011"><path d="M657.09,604.8783 C657.09,594.8783 716.9992,594.8783 716.9992,594.8783 C716.9992,594.8783 776.9084,594.8783 776.9084,604.8783 L776.9084,630.3666 C776.9084,640.3666 716.9992,640.3666 716.9992,640.3666 C716.9992,640.3666 657.09,640.3666 657.09,630.3666 L657.09,604.8783" fill="#F1F1F1" style="stroke:#475569;stroke-width:0.5;"/><path d="M657.09,604.8783 C657.09,614.8783 716.9992,614.8783 716.9992,614.8783 C716.9992,614.8783 776.9084,614.8783 776.9084,604.8783" fill="none" style="stroke:#475569;stroke-width:0.5;"/><text fill="#000000" font-family="sans-serif" font-size="14" lengthAdjust="spacing" textLength="99.8184" x="667.09" y="632.4134">Application DB</text></g><!--entity storage--><g class="entity" data-qualified-name="storage" data-source-line="38" id="ent0012"><path d="M814.1,590.3783 L855.1,590.3783 A3.75,3.75 0 0 1 857.6,592.8783 L864.6,611.3783 L917.891,611.3783 A2.5,2.5 0 0 1 920.391,613.8783 L920.391,642.3666 A2.5,2.5 0 0 1 917.891,644.8666 L814.1,644.8666 A2.5,2.5 0 0 1 811.6,642.3666 L811.6,592.8783 A2.5,2.5 0 0 1 814.1,590.3783" fill="#F1F1F1" style="stroke:#475569;stroke-width:0.5;"/><line style="stroke:#475569;stroke-width:0.5;" x1="811.6" x2="864.6" y1="611.3783" y2="611.3783"/><text fill="#000000" font-family="sans-serif" font-size="14" lengthAdjust="spacing" textLength="78.791" x="821.6" y="631.9134">File storage</text></g><!--entity external_services--><g class="entity" data-qualified-name="external_services" data-source-line="39" id="ent0013"><path d="M965.235,594.5452 C969.7944,589.6021 973.3484,590.4425 976.459,596.0819 C980.9433,589.5986 985.6502,590.045 990.536,595.6128 C994.0105,589.8144 998.3887,589.2983 1002.2951,595.1779 C1005.3708,590.527 1010.6585,590.7721 1013.4545,595.5104 C1016.5835,588.8138 1021.3791,587.1898 1026.6748,593.2683 C1030.833,588.1988 1036.4393,588.0795 1039.7402,594.2637 C1043.8065,587.9699 1048.1288,588.2936 1052.9284,593.4167 C1056.8271,588.7931 1060.4246,588.3618 1063.767,594.004 C1067.208,586.8857 1073.632,586.7727 1077.7926,593.2624 C1081.8047,588.379 1085.2269,588.7107 1088.9134,593.6318 C1093.3291,587.7324 1098.0694,587.6739 1102.1375,594.0076 C1106.4029,587.8705 1110.615,589.9808 1113.8935,595.0434 C1117.1611,588.7824 1123.1669,588.208 1127.4143,593.9388 C1132.6384,587.6188 1137.0634,588.6901 1140.7396,595.5087 C1152.4294,601.9184 1152.3417,610.2261 1142.8081,618.5418 C1154.9339,627.6256 1150.8657,635.8522 1140.4143,642.6987 C1137.697,647.9604 1131.8155,648.9089 1128.0976,643.8986 C1123.2176,650.8878 1118.1168,650.1346 1114.3374,642.8384 C1112.2257,647.6073 1106.9934,648.8837 1103.5239,644.4304 C1099.2579,649.7841 1092.9506,651.0442 1089.7245,643.3321 C1086.0295,649.2555 1081.5109,649.6319 1077.7244,643.4226 C1074.7453,649.7187 1068.233,651.8995 1063.5948,645.2306 C1060.1511,650.1715 1053.8141,651.3297 1051.085,644.4729 C1047.4418,649.2359 1043.9255,649.6679 1040.5571,644.1904 C1037.1455,650.8249 1030.6486,651.6408 1026.9482,644.4751 C1023.6202,650.4083 1018.0285,650.0608 1014.2957,644.9384 C1009.822,651.4385 1004.4712,649.9607 1001.3192,643.6042 C997.3078,648.885 992.3817,649.3905 988.5041,643.4514 C984.6273,648.6685 979.3331,647.6986 976.4864,642.2868 C973.5263,648.8852 967.1683,648.1947 963.628,642.9148 C952.717,636.1143 951.8062,626.5 962.0205,618.3188 C951.0157,610.7161 952.6016,598.9518 965.235,594.5452" fill="#F1F1F1" style="stroke:#475569;stroke-width:0.5;"/><text fill="#000000" font-family="sans-serif" font-size="14" lengthAdjust="spacing" textLength="113.9004" x="994.0477" y="614.6734">External services</text><text fill="#000000" font-family="sans-serif" font-size="14" lengthAdjust="spacing" textLength="161.6357" x="970.18" y="631.1617">SMTP, Turnstile, Ollama</text></g><!--link public_visitor to spa--><g class="link" data-entity-1="ent0001" data-entity-2="ent0004" data-link-type="dependency" data-source-line="42" id="lnk14"><path d="M659.73,127.8683 C674.06,156.4783 690.9399,190.1782 701.9499,212.1482" fill="none" id="public_visitor-to-spa" style="stroke:#475569;stroke-width:1;"/><polygon fill="#475569" points="704.19,216.6183,703.7338,206.78,701.9499,212.1482,696.5817,210.3642,704.19,216.6183" style="stroke:#475569;stroke-width:1;stroke-linejoin:miter;stroke-miterlimit:10;"/></g><!--link staff_user to spa--><g class="link" data-entity-1="ent0002" data-entity-2="ent0004" data-link-type="dependency" data-source-line="43" id="lnk15"><path d="M761.34,136.3483 C747.87,163.6283 733.7544,192.1954 723.9444,212.0554" fill="none" id="staff_user-to-spa" style="stroke:#475569;stroke-width:1;"/><polygon fill="#475569" points="721.73,216.5383,729.3022,210.2405,723.9444,212.0554,722.1295,206.6975,721.73,216.5383" style="stroke:#475569;stroke-width:1;stroke-linejoin:miter;stroke-miterlimit:10;"/></g><!--link spa to backend--><g class="link" data-entity-1="ent0004" data-entity-2="ent0005" data-link-type="dependency" data-source-line="44" id="lnk16"><path d="M705.95,253.6383 C695.67,279.0383 675.9,327.8933 658.4713,370.962 C649.7569,392.4964 641.6278,412.5842 635.563,427.5703 C634.8049,429.4436 634.079,431.2371 633.3883,432.9438 C633.302,433.1572 635.0919,428.7343 635.0067,428.9449" fill="none" id="spa-to-backend" style="stroke:#475569;stroke-width:1;"/><polygon fill="#475569" points="633.1309,433.5797,640.2151,426.7377,635.0067,428.9449,632.7994,423.7365,633.1309,433.5797" style="stroke:#475569;stroke-width:1;stroke-linejoin:miter;stroke-miterlimit:10;"/><text fill="#000000" font-family="sans-serif" font-size="13" lengthAdjust="spacing" textLength="57.1924" x="685.54" y="317.0166">HTTP API</text></g><!--link external_consumer to backend--><g class="link" data-entity-1="ent0003" data-entity-2="ent0005" data-link-type="dependency" data-source-line="46" id="lnk17"><path d="M525.59,273.7283 C523.08,289.9383 523.9,308.0083 535,320.4483 C545.42,332.1383 593.68,317.6283 605,328.4483 C607.5056,330.8452 609.7786,333.4211 611.8382,336.145 C612.8679,337.5069 613.8443,338.9059 614.7697,340.3379 C615.2324,341.0539 615.6824,341.7782 616.1199,342.5103 C616.3387,342.8763 616.5543,343.2443 616.7669,343.6142 C616.8732,343.7991 614.5238,339.6287 614.6286,339.8146" fill="none" id="external_consumer-to-backend" style="stroke:#475569;stroke-width:1;"/><polygon fill="#475569" points="617.0835,344.1704,616.1494,334.366,614.6286,339.8146,609.18,338.2938,617.0835,344.1704" style="stroke:#475569;stroke-width:1;stroke-linejoin:miter;stroke-miterlimit:10;"/><text fill="#000000" font-family="sans-serif" font-size="13" lengthAdjust="spacing" textLength="134.3418" x="536" y="317.0166">publication token API</text></g><!--link backend to db--><g class="link" data-entity-1="ent0005" data-entity-2="ent0011" data-link-type="dependency" data-source-line="48" id="lnk18"><path d="M633.1159,469.8694 C633.1967,470.0107 633.2779,470.1529 633.3597,470.296 C633.5233,470.5822 633.6888,470.8718 633.8563,471.1649 C634.1913,471.7511 634.5342,472.3509 634.8845,472.9639 C640.4903,482.772 648.0231,495.9508 656.2613,510.3633 C672.7375,539.1883 689.554,568.6073 701.899,590.2073" fill="none" id="backend-to-db" style="stroke:#475569;stroke-width:1;"/><polygon fill="#475569" points="704.38,594.5483,703.387,584.7496,701.899,590.2073,696.4413,588.7192,704.38,594.5483" style="stroke:#475569;stroke-width:1;stroke-linejoin:miter;stroke-miterlimit:10;"/><text fill="#000000" font-family="sans-serif" font-size="13" lengthAdjust="spacing" textLength="71.8301" x="680.24" y="549.4666">persistence</text></g><!--link backend to storage--><g class="link" data-entity-1="ent0005" data-entity-2="ent0012" data-link-type="dependency" data-source-line="49" id="lnk19"><path d="M633.1962,460.1055 C633.2984,460.1612 633.4015,460.2175 633.5054,460.2742 C635.1679,461.1821 637.0493,462.213 639.1272,463.3569 C647.4387,467.9323 658.8938,474.3152 672.055,481.8595 C698.3775,496.9483 731.525,516.6833 760,535.8983 C785.31,552.9683 808.7762,570.7993 829.3762,587.0693" fill="none" id="backend-to-storage" style="stroke:#475569;stroke-width:1;"/><polygon fill="#475569" points="833.3,590.1683,828.7164,581.451,829.3762,587.0693,823.758,587.7291,833.3,590.1683" style="stroke:#475569;stroke-width:1;stroke-linejoin:miter;stroke-miterlimit:10;"/><text fill="#000000" font-family="sans-serif" font-size="13" lengthAdjust="spacing" textLength="125.5186" x="784.9" y="549.4666">documents/imports</text></g><!--link backend to external_services--><g class="link" data-entity-1="ent0005" data-entity-2="ent0013" data-link-type="dependency" data-source-line="50" id="lnk20"><path d="M633.2463,457.0368 C633.5598,457.0903 633.8816,457.1455 634.2117,457.2021 C639.4931,458.1093 646.8918,459.4194 656.0073,461.1336 C674.2384,464.562 699.3369,469.607 728.0987,476.2783 C785.6225,489.6208 857.8,509.4683 919,535.8983 C950.07,549.3083 978.3787,566.3063 1003.3287,582.9263" fill="none" id="backend-to-external_services" style="stroke:#475569;stroke-width:1;"/><polygon fill="#475569" points="1007.49,585.6983,1002.2173,577.3797,1003.3287,582.9263,997.7821,584.0378,1007.49,585.6983" style="stroke:#475569;stroke-width:1;stroke-linejoin:miter;stroke-miterlimit:10;"/><text fill="#000000" font-family="sans-serif" font-size="13" lengthAdjust="spacing" textLength="124.376" x="954.21" y="549.4666">email, captcha, LLM</text></g><?plantuml-src XLNRRjf047ttLuoILr2I0hdqeH8tgqWXKA1zieJMzXgsh7TNUmc9elvxnuiDTaXJ7j1wvioPovwnBRESmYzcYQRQvH1B9rAQGYA5fIyMSgAW3ORbYhECqJG8p8u9HJJ9GP5aHpPqQL-HGjF44h7Xj0OmMvBAFHCRo0WtTKyYSoK55VRVmIdDYEDsXLNqETk87D6Gu1_LDLHVQxaVIYurN7RlUhtRXxepiL8Ff4wfBY6TJlUcrpk3O2CRNNHUmiBxi1yEQx15LU3dR2VOVnddX-4r-6wxTztxmGUWCpR_gm57n9AOc2RTsJn2oT7xEMR8fKi_XmXfARm501_LDHWF2a-TOD3jTQuVWZy1EaWnRxYOkvYp19wPOVXy0SI0ygPrQJf1-yvkyTPPGYpgqXcg8t45nf8iyt7-j2xifvZn2wf445x8sBYS7ZBGqhgkh44G79M7YSJ6SQ9XEUyVY1K9WbBZMF6htKe1CJvJaKOYbwb7vr98pkpMXvHUFvmQyr1g2dkfTncN-qXCqg8V-ng9duQ2p03dn17DiAn8bADPkZXdng3DCoS5nUNuElmIZj-JLy6m4tBFQRgXaQXPP_5lFC44z_eb4YEPEBzAAuexZJF5b5ES7kx-3qUDBy9dF99Xsc4u2dlDj1FHnejoQ59IMznnp3aPpORjuM8AKwAKDvNCJqHhOjap5hRmU4nwlAD3m-IK-KZf1NKt7ZKpzoTWd2eWaS3pNEExn1uY2LkNBWpjXHtSaKReJ57j4s7Q8yU2PbHJaL1uSdbCDTRs92s-xUeroIhI8FCDSfTwJil5mxAKgjg0qS07fJ4YChzqS14ohC2WF55EfN3z6I59iNCrrQAMdrbItCnokfgtOEMqm9lXj0KppabEcdAku2ZdvX91k_tDo_Yq8oUJ8lvSIVOhV5-jvj2VJuBWR57U8TNfni1AD1x2Aa01JkC2XyDanXQpRJZBpX6HbceqL_Y5ANJHm9rrY14q9uot827A9blIWiV7QV0N?></g></svg>