<svg xmlns="http://www.w3.org/2000/svg" xmlns:xlink="http://www.w3.org/1999/xlink" contentStyleType="text/css" data-diagram-type="CLASS" height="984px" preserveAspectRatio="none" style="width:1080px;height:984px;background:#FFFFFF;" version="1.1" viewBox="0 0 1080 984" width="1080px" zoomAndPan="magnify"><?plantuml 1.2026.6?><defs/><g><g class="title" data-source-line="1"><text fill="#000000" font-family="sans-serif" font-size="14" font-weight="700" lengthAdjust="spacing" textLength="192.6436" x="440.3665" y="23.5352">Reference Number Policies</text></g><!--cluster reference_numbers--><g class="cluster" data-qualified-name="reference_numbers" data-source-line="11" id="ent0001"><rect fill="none" height="679.03" rx="2.5" ry="2.5" style="stroke:#000000;stroke-width:1.5;" width="968" x="7" y="291.4683"/><text fill="#000000" font-family="sans-serif" font-size="14" font-style="italic" lengthAdjust="spacing" textLength="132.3848" x="424.8076" y="307.0034">&#171;Bounded Context&#187;</text><text fill="#000000" font-family="sans-serif" font-size="14" font-weight="700" lengthAdjust="spacing" textLength="138.7148" x="421.6426" y="323.4917">reference_numbers</text></g><!--class ReferencePolicy--><g class="entity" data-qualified-name="reference_numbers.ReferencePolicy" data-source-line="12" id="ent0002"><rect fill="#F1F1F1" height="205.0156" rx="2.5" ry="2.5" style="stroke:#181818;stroke-width:0.5;" width="262.9199" x="468.54" y="342.4683"/><ellipse cx="542.8979" cy="362.7788" fill="#ADD1B2" rx="11" ry="11" style="stroke:#181818;stroke-width:1;"/><path d="M545.3711,368.9219 Q544.79,369.2207 544.1508,369.3701 Q543.5117,369.5196 542.8061,369.5196 Q540.2993,369.5196 538.9795,367.8677 Q537.6596,366.2158 537.6596,363.0947 Q537.6596,359.9654 538.9795,358.3135 Q540.2993,356.6616 542.8061,356.6616 Q543.5117,356.6616 544.1591,356.8111 Q544.8066,356.9605 545.3711,357.2593 L545.3711,359.982 Q544.7402,359.4009 544.1467,359.1311 Q543.5532,358.8613 542.9223,358.8613 Q541.5776,358.8613 540.8928,359.928 Q540.208,360.9946 540.208,363.0947 Q540.208,365.1865 540.8928,366.2532 Q541.5776,367.3198 542.9223,367.3198 Q543.5532,367.3198 544.1467,367.0501 Q544.7402,366.7803 545.3711,366.1992 Z " fill="#000000"/><text fill="#000000" font-family="sans-serif" font-size="12" font-style="italic" lengthAdjust="spacing" textLength="103.3125" x="564.5937" y="359.0698">&#171;Aggregate Root&#187;</text><text fill="#000000" font-family="sans-serif" font-size="14" lengthAdjust="spacing" textLength="105.7041" x="563.3979" y="375.1363">ReferencePolicy</text><line style="stroke:#181818;stroke-width:0.5;" x1="469.54" x2="730.4599" y1="383.0894" y2="383.0894"/><text fill="#000000" font-family="sans-serif" font-size="14" lengthAdjust="spacing" textLength="148.3672" x="474.54" y="400.6245">-id: ReferencePolicyId</text><text fill="#000000" font-family="sans-serif" font-size="14" lengthAdjust="spacing" textLength="144.1631" x="474.54" y="417.1128">-kind: ReferenceKind</text><text fill="#000000" font-family="sans-serif" font-size="14" lengthAdjust="spacing" textLength="154.9775" x="474.54" y="433.6011">-mask: ReferenceMask</text><text fill="#000000" font-family="sans-serif" font-size="14" lengthAdjust="spacing" textLength="205.3994" x="474.54" y="450.0894">-status: ReferencePolicyStatus</text><text fill="#000000" font-family="sans-serif" font-size="14" lengthAdjust="spacing" textLength="162.0254" x="474.54" y="466.5777">-activeFrom: DateTime?</text><text fill="#000000" font-family="sans-serif" font-size="14" lengthAdjust="spacing" textLength="158.8398" x="474.54" y="483.0659">-activeUntil: DateTime?</text><line style="stroke:#181818;stroke-width:0.5;" x1="469.54" x2="730.4599" y1="490.0191" y2="490.0191"/><text fill="#000000" font-family="sans-serif" font-size="14" lengthAdjust="spacing" textLength="234.3086" x="474.54" y="507.5542">+activate(actorId): ReferencePolicy</text><text fill="#000000" font-family="sans-serif" font-size="14" lengthAdjust="spacing" textLength="250.9199" x="474.54" y="524.0425">+deactivate(actorId): ReferencePolicy</text><text fill="#000000" font-family="sans-serif" font-size="14" lengthAdjust="spacing" textLength="174.959" x="474.54" y="540.5308">+matches(value): Boolean</text></g><!--class ReferenceMask--><g class="entity" data-qualified-name="reference_numbers.ReferenceMask" data-source-line="24" id="ent0003"><rect fill="#F1F1F1" height="139.0625" rx="2.5" ry="2.5" style="stroke:#181818;stroke-width:0.5;" width="249.1318" x="338.43" y="624.4783"/><ellipse cx="407.7977" cy="644.7888" fill="#ADD1B2" rx="11" ry="11" style="stroke:#181818;stroke-width:1;"/><path d="M410.2708,650.9319 Q409.6898,651.2307 409.0506,651.3801 Q408.4114,651.5296 407.7059,651.5296 Q405.199,651.5296 403.8792,649.8777 Q402.5594,648.2258 402.5594,645.1047 Q402.5594,641.9754 403.8792,640.3235 Q405.199,638.6716 407.7059,638.6716 Q408.4114,638.6716 409.0589,638.8211 Q409.7064,638.9705 410.2708,639.2693 L410.2708,641.992 Q409.64,641.4109 409.0465,641.1411 Q408.4529,640.8713 407.8221,640.8713 Q406.4774,640.8713 405.7925,641.938 Q405.1077,643.0046 405.1077,645.1047 Q405.1077,647.1965 405.7925,648.2632 Q406.4774,649.3298 407.8221,649.3298 Q408.4529,649.3298 409.0465,649.0601 Q409.64,648.7903 410.2708,648.2092 Z " fill="#000000"/><text fill="#000000" font-family="sans-serif" font-size="12" font-style="italic" lengthAdjust="spacing" textLength="86.291" x="436.1004" y="641.0798">&#171;Value Object&#187;</text><text fill="#000000" font-family="sans-serif" font-size="14" lengthAdjust="spacing" textLength="101.8965" x="428.2977" y="657.1463">ReferenceMask</text><line style="stroke:#181818;stroke-width:0.5;" x1="339.43" x2="586.5618" y1="665.0994" y2="665.0994"/><text fill="#000000" font-family="sans-serif" font-size="14" lengthAdjust="spacing" textLength="81.1768" x="344.43" y="682.6345">-raw: String</text><line style="stroke:#181818;stroke-width:0.5;" x1="339.43" x2="586.5618" y1="689.5877" y2="689.5877"/><text fill="#000000" font-family="sans-serif" font-size="14" lengthAdjust="spacing" textLength="234.917" x="344.43" y="707.1228">+render(onDate, sequence): String</text><text fill="#000000" font-family="sans-serif" font-size="14" lengthAdjust="spacing" textLength="237.1318" x="344.43" y="723.6111">+sequenceScope(): SequenceScope</text><text fill="#000000" font-family="sans-serif" font-size="14" lengthAdjust="spacing" textLength="181.3779" x="344.43" y="740.0994">+scopeKey(onDate): String</text><text fill="#000000" font-family="sans-serif" font-size="14" lengthAdjust="spacing" textLength="132.8564" x="344.43" y="756.5877">+toRegex(): Pattern</text></g><!--class LegacyReferenceFormat--><g class="entity" data-qualified-name="reference_numbers.LegacyReferenceFormat" data-source-line="32" id="ent0004"><rect fill="#F1F1F1" height="106.0859" rx="2.5" ry="2.5" style="stroke:#181818;stroke-width:0.5;" width="192.8701" x="766.56" y="391.9283"/><ellipse cx="781.56" cy="412.2388" fill="#ADD1B2" rx="11" ry="11" style="stroke:#181818;stroke-width:1;"/><path d="M784.0331,418.3819 Q783.4521,418.6807 782.8129,418.8301 Q782.1738,418.9796 781.4682,418.9796 Q778.9614,418.9796 777.6415,417.3277 Q776.3217,415.6758 776.3217,412.5547 Q776.3217,409.4254 777.6415,407.7735 Q778.9614,406.1216 781.4682,406.1216 Q782.1738,406.1216 782.8212,406.2711 Q783.4687,406.4205 784.0331,406.7193 L784.0331,409.442 Q783.4023,408.8609 782.8088,408.5911 Q782.2153,408.3213 781.5844,408.3213 Q780.2397,408.3213 779.5549,409.388 Q778.8701,410.4546 778.8701,412.5547 Q778.8701,414.6465 779.5549,415.7132 Q780.2397,416.7798 781.5844,416.7798 Q782.2153,416.7798 782.8088,416.5101 Q783.4023,416.2403 784.0331,415.6592 Z " fill="#000000"/><text fill="#000000" font-family="sans-serif" font-size="12" font-style="italic" lengthAdjust="spacing" textLength="86.291" x="832.8496" y="408.5298">&#171;Value Object&#187;</text><text fill="#000000" font-family="sans-serif" font-size="14" lengthAdjust="spacing" textLength="160.8701" x="795.56" y="424.5962">LegacyReferenceFormat</text><line style="stroke:#181818;stroke-width:0.5;" x1="767.56" x2="958.4301" y1="432.5494" y2="432.5494"/><text fill="#000000" font-family="sans-serif" font-size="14" lengthAdjust="spacing" textLength="144.1631" x="772.56" y="450.0845">-kind: ReferenceKind</text><text fill="#000000" font-family="sans-serif" font-size="14" lengthAdjust="spacing" textLength="94.2197" x="772.56" y="466.5728">-name: String</text><line style="stroke:#181818;stroke-width:0.5;" x1="767.56" x2="958.4301" y1="473.5259" y2="473.5259"/><text fill="#000000" font-family="sans-serif" font-size="14" lengthAdjust="spacing" textLength="174.959" x="772.56" y="491.0611">+matches(value): Boolean</text></g><!--class ReferenceSequence--><g class="entity" data-qualified-name="reference_numbers.ReferenceSequence" data-source-line="38" id="ent0005"><rect fill="#F1F1F1" height="106.0859" rx="2.5" ry="2.5" style="stroke:#181818;stroke-width:0.5;" width="200.3438" x="622.83" y="640.9683"/><ellipse cx="654.596" cy="661.2788" fill="#ADD1B2" rx="11" ry="11" style="stroke:#181818;stroke-width:1;"/><path d="M657.0692,667.4219 Q656.4881,667.7207 655.8489,667.8701 Q655.2098,668.0196 654.5042,668.0196 Q651.9974,668.0196 650.6776,666.3677 Q649.3577,664.7158 649.3577,661.5947 Q649.3577,658.4654 650.6776,656.8135 Q651.9974,655.1616 654.5042,655.1616 Q655.2098,655.1616 655.8572,655.3111 Q656.5047,655.4605 657.0692,655.7593 L657.0692,658.482 Q656.4383,657.9009 655.8448,657.6311 Q655.2513,657.3613 654.6204,657.3613 Q653.2757,657.3613 652.5909,658.428 Q651.9061,659.4946 651.9061,661.5947 Q651.9061,663.6865 652.5909,664.7532 Q653.2757,665.8198 654.6204,665.8198 Q655.2513,665.8198 655.8448,665.5501 Q656.4383,665.2803 657.0692,664.6992 Z " fill="#000000"/><text fill="#000000" font-family="sans-serif" font-size="12" font-style="italic" lengthAdjust="spacing" textLength="106.9453" x="684.3921" y="657.5698">&#171;Repository State&#187;</text><text fill="#000000" font-family="sans-serif" font-size="14" lengthAdjust="spacing" textLength="131.0859" x="672.3218" y="673.6363">ReferenceSequence</text><line style="stroke:#181818;stroke-width:0.5;" x1="623.83" x2="822.1738" y1="681.5894" y2="681.5894"/><text fill="#000000" font-family="sans-serif" font-size="14" lengthAdjust="spacing" textLength="188.3438" x="628.83" y="699.1245">-policyId: ReferencePolicyId</text><text fill="#000000" font-family="sans-serif" font-size="14" lengthAdjust="spacing" textLength="120.7021" x="628.83" y="715.6128">-scopeKey: String</text><text fill="#000000" font-family="sans-serif" font-size="14" lengthAdjust="spacing" textLength="132.7061" x="628.83" y="732.1011">-nextValue: Integer</text><line style="stroke:#181818;stroke-width:0.5;" x1="623.83" x2="822.1738" y1="739.0542" y2="739.0542"/></g><!--class ReferenceKind--><g class="entity" data-qualified-name="reference_numbers.ReferenceKind" data-source-line="44" id="ent0006"><rect fill="#F1F1F1" height="130.4414" rx="2.5" ry="2.5" style="stroke:#181818;stroke-width:0.5;" width="196.7275" x="22.64" y="379.7583"/><ellipse cx="68.017" cy="395.7583" fill="#EB937F" rx="11" ry="11" style="stroke:#181818;stroke-width:1;"/><path d="M71.6312,402.2583 L63.9115,402.2583 L63.9115,389.8652 L71.6312,389.8652 L71.6312,392.0234 L66.3602,392.0234 L66.3602,394.6963 L71.1332,394.6963 L71.1332,396.8545 L66.3602,396.8545 L66.3602,400.1001 L71.6312,400.1001 Z " fill="#000000"/><text fill="#000000" font-family="sans-serif" font-size="14" lengthAdjust="spacing" textLength="97.4736" x="88.517" y="401.0493">ReferenceKind</text><line style="stroke:#181818;stroke-width:0.5;" x1="23.64" x2="218.3675" y1="411.7583" y2="411.7583"/><text fill="#000000" font-family="sans-serif" font-size="14" lengthAdjust="spacing" textLength="70.7451" x="28.64" y="429.2934">PROPOSAL</text><text fill="#000000" font-family="sans-serif" font-size="14" lengthAdjust="spacing" textLength="183.6475" x="28.64" y="445.7817">COLLECTION_USE_PROJECT</text><text fill="#000000" font-family="sans-serif" font-size="14" lengthAdjust="spacing" textLength="143.5684" x="28.64" y="462.27">OBJECT_ACCESS_LOG</text><text fill="#000000" font-family="sans-serif" font-size="14" lengthAdjust="spacing" textLength="184.7275" x="28.64" y="478.7583">OBJECT_OCCURRENCE_LOG</text><text fill="#000000" font-family="sans-serif" font-size="14" lengthAdjust="spacing" textLength="125.8975" x="28.64" y="495.2466">PUBLICATION_LOG</text><line style="stroke:#181818;stroke-width:0.5;" x1="23.64" x2="218.3675" y1="502.1997" y2="502.1997"/></g><!--class ReferencePolicyStatus--><g class="entity" data-qualified-name="reference_numbers.ReferencePolicyStatus" data-source-line="52" id="ent0007"><rect fill="#F1F1F1" height="113.9531" rx="2.5" ry="2.5" style="stroke:#181818;stroke-width:0.5;" width="179.2734" x="254.36" y="387.9983"/><ellipse cx="269.36" cy="403.9983" fill="#EB937F" rx="11" ry="11" style="stroke:#181818;stroke-width:1;"/><path d="M272.9743,410.4983 L265.2545,410.4983 L265.2545,398.1052 L272.9743,398.1052 L272.9743,400.2634 L267.7033,400.2634 L267.7033,402.9363 L272.4762,402.9363 L272.4762,405.0945 L267.7033,405.0945 L267.7033,408.3401 L272.9743,408.3401 Z " fill="#000000"/><text fill="#000000" font-family="sans-serif" font-size="14" lengthAdjust="spacing" textLength="147.2734" x="283.36" y="409.2893">ReferencePolicyStatus</text><line style="stroke:#181818;stroke-width:0.5;" x1="255.36" x2="432.6334" y1="419.9983" y2="419.9983"/><text fill="#000000" font-family="sans-serif" font-size="14" lengthAdjust="spacing" textLength="45.3564" x="260.36" y="437.5334">DRAFT</text><text fill="#000000" font-family="sans-serif" font-size="14" lengthAdjust="spacing" textLength="48.9727" x="260.36" y="454.0217">ACTIVE</text><text fill="#000000" font-family="sans-serif" font-size="14" lengthAdjust="spacing" textLength="63.3486" x="260.36" y="470.51">INACTIVE</text><text fill="#000000" font-family="sans-serif" font-size="14" lengthAdjust="spacing" textLength="56.2529" x="260.36" y="486.9983">RETIRED</text><line style="stroke:#181818;stroke-width:0.5;" x1="255.36" x2="432.6334" y1="493.9514" y2="493.9514"/></g><!--class ReferencePolicyEvent--><g class="entity" data-qualified-name="reference_numbers.ReferencePolicyEvent" data-source-line="59" id="ent0008"><rect fill="#F1F1F1" height="113.9531" rx="2.5" ry="2.5" style="stroke:#181818;stroke-width:0.5;" width="174.2627" x="33.87" y="637.0383"/><ellipse cx="48.87" cy="653.0383" fill="#EB937F" rx="11" ry="11" style="stroke:#181818;stroke-width:1;"/><path d="M52.4843,659.5383 L44.7645,659.5383 L44.7645,647.1452 L52.4843,647.1452 L52.4843,649.3034 L47.2133,649.3034 L47.2133,651.9763 L51.9862,651.9763 L51.9862,654.1345 L47.2133,654.1345 L47.2133,657.3801 L52.4843,657.3801 Z " fill="#000000"/><text fill="#000000" font-family="sans-serif" font-size="14" lengthAdjust="spacing" textLength="142.2627" x="62.87" y="658.3293">ReferencePolicyEvent</text><line style="stroke:#181818;stroke-width:0.5;" x1="34.87" x2="207.1327" y1="669.0383" y2="669.0383"/><text fill="#000000" font-family="sans-serif" font-size="14" lengthAdjust="spacing" textLength="62.7129" x="39.87" y="686.5734">CREATED</text><text fill="#000000" font-family="sans-serif" font-size="14" lengthAdjust="spacing" textLength="77.9707" x="39.87" y="703.0617">ACTIVATED</text><text fill="#000000" font-family="sans-serif" font-size="14" lengthAdjust="spacing" textLength="96.0449" x="39.87" y="719.55">DEACTIVATED</text><text fill="#000000" font-family="sans-serif" font-size="14" lengthAdjust="spacing" textLength="56.2529" x="39.87" y="736.0383">RETIRED</text><line style="stroke:#181818;stroke-width:0.5;" x1="34.87" x2="207.1327" y1="742.9914" y2="742.9914"/></g><!--class SequenceScope--><g class="entity" data-qualified-name="reference_numbers.SequenceScope" data-source-line="66" id="ent0009"><rect fill="#F1F1F1" height="113.9531" rx="2.5" ry="2.5" style="stroke:#181818;stroke-width:0.5;" width="136.2207" x="394.89" y="840.5483"/><ellipse cx="409.89" cy="856.5483" fill="#EB937F" rx="11" ry="11" style="stroke:#181818;stroke-width:1;"/><path d="M413.5043,863.0483 L405.7845,863.0483 L405.7845,850.6552 L413.5043,850.6552 L413.5043,852.8134 L408.2333,852.8134 L408.2333,855.4863 L413.0062,855.4863 L413.0062,857.6445 L408.2333,857.6445 L408.2333,860.8901 L413.5043,860.8901 Z " fill="#000000"/><text fill="#000000" font-family="sans-serif" font-size="14" lengthAdjust="spacing" textLength="104.2207" x="423.89" y="861.8393">SequenceScope</text><line style="stroke:#181818;stroke-width:0.5;" x1="395.89" x2="530.1107" y1="872.5483" y2="872.5483"/><text fill="#000000" font-family="sans-serif" font-size="14" lengthAdjust="spacing" textLength="53.6348" x="400.89" y="890.0834">GLOBAL</text><text fill="#000000" font-family="sans-serif" font-size="14" lengthAdjust="spacing" textLength="34.8223" x="400.89" y="906.5717">YEAR</text><text fill="#000000" font-family="sans-serif" font-size="14" lengthAdjust="spacing" textLength="52.418" x="400.89" y="923.06">MONTH</text><text fill="#000000" font-family="sans-serif" font-size="14" lengthAdjust="spacing" textLength="28.8682" x="400.89" y="939.5483">DAY</text><line style="stroke:#181818;stroke-width:0.5;" x1="395.89" x2="530.1107" y1="946.5014" y2="946.5014"/></g><!--class admin--><g class="entity" data-qualified-name="admin" data-source-line="74" id="ent0010"><rect fill="#F1F1F1" height="48" rx="2.5" ry="2.5" style="stroke:#181818;stroke-width:0.5;" width="109.3828" x="515.31" y="44.4883"/><ellipse cx="530.31" cy="60.4883" fill="#ADD1B2" rx="11" ry="11" style="stroke:#181818;stroke-width:1;"/><path d="M532.7831,66.6313 Q532.2021,66.9302 531.5629,67.0796 Q530.9238,67.229 530.2182,67.229 Q527.7114,67.229 526.3915,65.5771 Q525.0717,63.9253 525.0717,60.8042 Q525.0717,57.6748 526.3915,56.0229 Q527.7114,54.3711 530.2182,54.3711 Q530.9238,54.3711 531.5712,54.5205 Q532.2187,54.6699 532.7831,54.9688 L532.7831,57.6914 Q532.1523,57.1104 531.5588,56.8406 Q530.9653,56.5708 530.3344,56.5708 Q528.9897,56.5708 528.3049,57.6375 Q527.6201,58.7041 527.6201,60.8042 Q527.6201,62.896 528.3049,63.9626 Q528.9897,65.0293 530.3344,65.0293 Q530.9653,65.0293 531.5588,64.7595 Q532.1523,64.4897 532.7831,63.9087 Z " fill="#000000"/><text fill="#000000" font-family="sans-serif" font-size="14" lengthAdjust="spacing" textLength="77.3828" x="544.31" y="65.7793">SYS_ADMIN</text><line style="stroke:#181818;stroke-width:0.5;" x1="516.31" x2="623.6928" y1="76.4883" y2="76.4883"/><line style="stroke:#181818;stroke-width:0.5;" x1="516.31" x2="623.6928" y1="84.4883" y2="84.4883"/></g><!--class api--><g class="entity" data-qualified-name="api" data-source-line="75" id="ent0011"><rect fill="#F1F1F1" height="58.9766" rx="2.5" ry="2.5" style="stroke:#181818;stroke-width:0.5;" width="273.3428" x="433.33" y="169.4883"/><ellipse cx="448.33" cy="190.9766" fill="#ADD1B2" rx="11" ry="11" style="stroke:#181818;stroke-width:1;"/><path d="M450.8031,197.1196 Q450.2221,197.4185 449.5829,197.5679 Q448.9438,197.7173 448.2382,197.7173 Q445.7314,197.7173 444.4115,196.0654 Q443.0917,194.4136 443.0917,191.2925 Q443.0917,188.1631 444.4115,186.5112 Q445.7314,184.8594 448.2382,184.8594 Q448.9438,184.8594 449.5912,185.0088 Q450.2387,185.1582 450.8031,185.457 L450.8031,188.1797 Q450.1723,187.5986 449.5788,187.3289 Q448.9853,187.0591 448.3544,187.0591 Q447.0097,187.0591 446.3249,188.1257 Q445.6401,189.1924 445.6401,191.2925 Q445.6401,193.3843 446.3249,194.4509 Q447.0097,195.5176 448.3544,195.5176 Q448.9853,195.5176 449.5788,195.2478 Q450.1723,194.978 450.8031,194.397 Z " fill="#000000"/><text fill="#000000" font-family="sans-serif" font-size="14" lengthAdjust="spacing" textLength="70.1367" x="547.933" y="188.0234">Admin API</text><text fill="#000000" font-family="sans-serif" font-size="14" lengthAdjust="spacing" textLength="241.3428" x="462.33" y="204.5117">/admin/reference-number-policies</text><line style="stroke:#181818;stroke-width:0.5;" x1="434.33" x2="705.6728" y1="212.4648" y2="212.4648"/><line style="stroke:#181818;stroke-width:0.5;" x1="434.33" x2="705.6728" y1="220.4648" y2="220.4648"/></g><!--class consumers--><g class="entity" data-qualified-name="consumers" data-source-line="76" id="ent0012"><rect fill="#F1F1F1" height="48" rx="2.5" ry="2.5" style="stroke:#181818;stroke-width:0.5;" width="243.5176" x="741.24" y="174.9783"/><ellipse cx="756.24" cy="190.9783" fill="#ADD1B2" rx="11" ry="11" style="stroke:#181818;stroke-width:1;"/><path d="M758.7131,197.1213 Q758.1321,197.4202 757.4929,197.5696 Q756.8538,197.719 756.1482,197.719 Q753.6414,197.719 752.3215,196.0671 Q751.0017,194.4153 751.0017,191.2942 Q751.0017,188.1648 752.3215,186.5129 Q753.6414,184.8611 756.1482,184.8611 Q756.8538,184.8611 757.5012,185.0105 Q758.1487,185.1599 758.7131,185.4588 L758.7131,188.1814 Q758.0823,187.6004 757.4888,187.3306 Q756.8953,187.0608 756.2644,187.0608 Q754.9197,187.0608 754.2349,188.1275 Q753.5501,189.1941 753.5501,191.2942 Q753.5501,193.386 754.2349,194.4526 Q754.9197,195.5193 756.2644,195.5193 Q756.8953,195.5193 757.4888,195.2495 Q758.0823,194.9797 758.7131,194.3987 Z " fill="#000000"/><text fill="#000000" font-family="sans-serif" font-size="14" lengthAdjust="spacing" textLength="211.5176" x="770.24" y="196.2693">Proposal/project/log use cases</text><line style="stroke:#181818;stroke-width:0.5;" x1="742.24" x2="983.7576" y1="206.9783" y2="206.9783"/><line style="stroke:#181818;stroke-width:0.5;" x1="742.24" x2="983.7576" y1="214.9783" y2="214.9783"/></g><!--link admin to api--><g class="link" data-entity-1="ent0010" data-entity-2="ent0011" data-link-type="dependency" data-source-line="78" id="lnk13"><path codeLine="78" d="M570,92.7583 C570,114.1683 570,140.9883 570,164.0283" fill="none" id="admin-to-api" style="stroke:#181818;stroke-width:1;"/><polygon fill="#181818" points="570,169.0283,574,160.0283,570,164.0283,566,160.0283,570,169.0283" style="stroke:#181818;stroke-width:1;stroke-linejoin:miter;stroke-miterlimit:10;"/><text fill="#000000" font-family="sans-serif" font-size="13" lengthAdjust="spacing" textLength="278.5415" x="571" y="136.0566">list / preview / create / activate / deactivate</text></g><!--link api to ReferencePolicy--><g class="link" data-entity-1="ent0011" data-entity-2="ent0002" data-link-type="dependency" data-source-line="79" id="lnk14"><path codeLine="79" d="M573.56,228.9283 C577,256.9483 581.8192,296.1357 586.8692,337.1657" fill="none" id="api-to-ReferencePolicy" style="stroke:#181818;stroke-width:1;"/><polygon fill="#181818" points="587.48,342.1283,590.3506,332.7071,586.8692,337.1657,582.4105,333.6843,587.48,342.1283" style="stroke:#181818;stroke-width:1;stroke-linejoin:miter;stroke-miterlimit:10;"/></g><!--reverse link ReferencePolicy to ReferenceMask--><g class="link" data-entity-1="ent0002" data-entity-2="ent0003" data-link-type="composition" data-source-line="80" id="lnk15"><path codeLine="80" d="M537.6685,558.3716 C523.4385,584.0216 514.32,600.4683 501.23,624.0783" fill="none" id="ReferencePolicy-backto-ReferenceMask" style="stroke:#181818;stroke-width:1;"/><polygon fill="#181818" points="543.49,547.8783,537.0815,551.1845,537.6685,558.3716,544.0771,555.0654,543.49,547.8783" style="stroke:#181818;stroke-width:1;stroke-linejoin:miter;stroke-miterlimit:10;"/></g><!--link ReferencePolicy to ReferenceSequence--><g class="link" data-entity-1="ent0002" data-entity-2="ent0005" data-link-type="dependency" data-source-line="81" id="lnk16"><path codeLine="81" d="M650.74,547.8783 C666.62,579.7783 681.2619,609.1822 694.7019,636.1822" fill="none" id="ReferencePolicy-to-ReferenceSequence" style="stroke:#181818;stroke-width:1;"/><polygon fill="#181818" points="696.93,640.6583,696.5003,630.8188,694.7019,636.1822,689.3385,634.3838,696.93,640.6583" style="stroke:#181818;stroke-width:1;stroke-linejoin:miter;stroke-miterlimit:10;"/><text fill="#000000" font-family="sans-serif" font-size="13" lengthAdjust="spacing" textLength="191.6294" x="673.52" y="591.0466">allocates through active policy</text></g><!--link ReferenceMask to SequenceScope--><g class="link" data-entity-1="ent0003" data-entity-2="ent0009" data-link-type="dependency" data-source-line="82" id="lnk17"><path codeLine="82" d="M463,763.7983 C463,788.6483 463,811.4083 463,835.0783" fill="none" id="ReferenceMask-to-SequenceScope" style="stroke:#181818;stroke-width:1;stroke-dasharray:7,7;"/><polygon fill="#181818" points="463,840.0783,467,831.0783,463,835.0783,459,831.0783,463,840.0783" style="stroke:#181818;stroke-width:1;stroke-linejoin:miter;stroke-miterlimit:10;"/><text fill="#000000" font-family="sans-serif" font-size="13" lengthAdjust="spacing" textLength="189.4268" x="464" y="807.1166">derived from the mask tokens</text></g><!--link consumers to ReferencePolicy--><g class="link" data-entity-1="ent0012" data-entity-2="ent0002" data-link-type="dependency" data-source-line="83" id="lnk18"><path codeLine="83" d="M747.23,223.4583 C709.43,233.1783 673.64,245.2683 660,258.4683 C637.02,280.7183 624.2149,307.0139 615.4549,337.4039" fill="none" id="consumers-to-ReferencePolicy" style="stroke:#181818;stroke-width:1;stroke-dasharray:7,7;"/><polygon fill="#181818" points="614.07,342.2083,620.4063,334.6683,615.4549,337.4039,612.7193,332.4525,614.07,342.2083" style="stroke:#181818;stroke-width:1;stroke-linejoin:miter;stroke-miterlimit:10;"/><text fill="#000000" font-family="sans-serif" font-size="13" lengthAdjust="spacing" textLength="193.8384" x="661" y="272.0366">request next reference by kind</text></g><!--link consumers to LegacyReferenceFormat--><g class="link" data-entity-1="ent0012" data-entity-2="ent0004" data-link-type="dependency" data-source-line="84" id="lnk19"><path codeLine="84" d="M863,223.3783 C863,261.8983 863,334.6083 863,386.7383" fill="none" id="consumers-to-LegacyReferenceFormat" style="stroke:#181818;stroke-width:1;stroke-dasharray:7,7;"/><polygon fill="#181818" points="863,391.7383,867,382.7383,863,386.7383,859,382.7383,863,391.7383" style="stroke:#181818;stroke-width:1;stroke-linejoin:miter;stroke-miterlimit:10;"/><text fill="#000000" font-family="sans-serif" font-size="13" lengthAdjust="spacing" textLength="200.3765" x="864" y="272.0366">recognise pre-policy references</text></g><?plantuml-src bLLTRzis57tNhxZ8Nj9jhWjiVPXHP91akTFgM8Ra50Wmm62a6uMBH6eadTGR-jzxILEEh2J3zaRo71xU3_BGSDCWv7YB2aM9iDgrDwXWBHjUSjH1eE-vw9XYBPGDqpeqHl6RdS6qbABWVoEy6r3q7Qla8nSrtB96um3fM7dFQYpCdevJM1ecwcP84D8W_1C0HCIibTo9AfQDLF3TOh68aiWYKbMe_6hqy_kVtlqIV0q2BmrdgizYArmM-Wm-V8Yi4bOGIs7mYxcuS8UuN9xITkdkYHtMjSAQKIYvb3qPO0AycetfQUKnoc68VgAfHrgcxmV89KqzeWqpE_rCit3BdiDAmnzmeMGxWpd5jE4j_dg2NGd3cp7umm6ajNCQI9LMRvwTuuaL_cTgoqnvX_hyWJKx95OaPODC44ejU5PGcocLyxCbGtRp9pLyK4p57cTGq4KIjLUdJTJQSobiAZ-2nhzsLkRDYDQl5wNiyDoYmuMUPCUVSE_LnXf6vbZZ5xjxpOn1DSfXIVqlzyTC5b9Hwg_dydhp1MjnTFR_AsAV71sUOoSrfmxjmLuH70JG-Slu-lti2t8I3CL7py4bDOEKtaQDgey3wVsSfkHFM-VPEYl2fPl4sNAPn9iqMsslYcHBsEyqTL0MsU4sZEEaABRBxEDmDOlZgpnFLd5oHDPNqJADGwTrM7iXZk4ByV7Cyt1nE36aG3udRfYk1fCysQHvClytnUG1XV62SPw46qVtaiVPF3cTloHySXkzuiTb5lc2NITXxWQNsMhpsq4rl7OAf75e_bbnNMp3-MMwEWEcWLKj5pqKsWc4w_GFCNN0zEXuauFZJJhlsuVD7U-thfMa2yIQQQUalS3JHjQmqmWbqvvDVgvtBRbc43Xnc4mkh0JCeE7Qm1GwXGyS7sbKAhGUEJqw3GsVl2Imk-pkiPEC_VRxoMHaZcF6YShnFSo0DOqiwIWDvex-YlhE6w9_3S6f4RrzUp7gpOp2LSIlu9RibKJGUJMPmpqA7HnhuRQEWvgHNP4OrSG-8JWs0MxspWv6srys52jIobfmQW8Lzj2v_PCOjU4R?></g></svg>